<svg width="126" height="142" viewBox="0 0 126 142" fill="none" xmlns="http://www.w3.org/2000/svg">
<ellipse cx="66.7218" cy="91.6602" rx="44" ry="39" transform="rotate(-17 66.7218 91.6602)" fill="#9F2B2C"/>
<path d="M57.2419 64.5C51.8735 48.0496 33.5577 19.5101 3.24194 36.9551" stroke="#9F2B2C" stroke-width="13"/>
<ellipse cx="38.1857" cy="75.7209" rx="4.5" ry="12" transform="rotate(-141.916 38.1857 75.7209)" fill="#FBFBFB"/>
<ellipse cx="33.5823" cy="89.0043" rx="1.67137" ry="3.1829" transform="rotate(-139.4 33.5823 89.0043)" fill="#FBFBFB"/>
<path d="M109.436 27.0062L103.309 69.4997L77.8175 69.4998L53.7984 62.147L59.9222 20.0476L109.436 27.0062Z" fill="white" stroke="black"/>
<ellipse cx="83.8908" cy="91.9599" rx="4.64886" ry="10.4599" fill="black"/>
<path d="M88.9223 82.6622L92.9483 89.6355H84.8963L88.9223 82.6622Z" fill="#9F2B2C"/>
<path d="M67.6292 104.736C61.6718 100.449 47.1055 98.3897 44.6587 101.381" stroke="black" stroke-width="3"/>
<path d="M66.9213 105.165C64.8375 100.426 57.9077 95.2825 56.0167 96.9715" stroke="black" stroke-width="3"/>
<path d="M123.36 29.1697C126.491 31.3963 126.946 41.7109 114.869 50.1719C105.733 56.5727 91.8763 48.3458 85.1013 42.6626C83.6923 43.236 78.28 44.3828 67.9027 44.3828C54.931 44.3828 38.9471 30.7036 52.2472 10.9843C65.2112 -8.23667 83.9977 3.41397 96.9694 10.9843C123.807 5.64053 120.229 26.9431 123.36 29.1697Z" fill="white"/>
<path d="M84.0054 41.7109C84.3458 42.0176 84.7119 42.3359 85.1013 42.6626M85.1013 42.6626C91.8763 48.3458 105.733 56.5727 114.869 50.1719C126.946 41.7109 126.491 31.3963 123.36 29.1697C120.229 26.9431 123.807 5.64053 96.9694 10.9843C83.9977 3.41397 65.2112 -8.23667 52.2472 10.9843C38.9471 30.7036 54.931 44.3828 67.9027 44.3828C78.28 44.3828 83.6923 43.236 85.1013 42.6626Z" stroke="black"/>
</svg>
